<?xml version="1.0" encoding="utf-8"?>
<!-- Generator: Adobe Illustrator 26.5.0, SVG Export Plug-In . SVG Version: 6.00 Build 0)  -->
<svg version="1.1" id="Layer_2_00000057865511538908456840000010713422792556887479_"
	 xmlns="http://www.w3.org/2000/svg" xmlns:xlink="http://www.w3.org/1999/xlink" x="0px" y="0px" viewBox="0 0 636.4 367.3"
	 style="enable-background:new 0 0 636.4 367.3;" xml:space="preserve">
<style type="text/css">
	.st0{fill:#3B4AFF;}
	.st1{fill:#FFFFFF;}
	.st2{fill:#FF8E2A;}
</style>
<g>
	<path class="st0" d="M441.7,3h-249c-29.9,0-54.3,24.3-54.3,54.3v148.1h101.2c30.9,0,56,25.1,56,56v99.2h146
		c30,0,54.3-24.3,54.3-54.3v-249C496,27.3,471.7,3,441.7,3z"/>
	<g>
		<path class="st1" d="M316.9,74c2.2,3.3,5.5,7.7,10,13.3c5,4.7,9.8,8.6,14.5,11.7c-0.2,0.7-1.1,2.8-2.5,6.3
			c10.2,4.2,18.5,10.9,24.8,20.1c6.5,9.5,9.7,20,9.7,31.5s-3.2,21.9-9.7,31.2c-6.5,9.4-14.9,16.1-25.3,20.3c1.5,3.6,2.8,6.7,4.1,9.4
			c-1.9,0.8-4.9,2.3-9,4.4c-2.4,1.5-5.7,3.9-9.9,7.3v13.9c11-6,21.1-13,30.3-21.1c13.6-11.8,22.5-23.7,26.7-35.9
			c3.9-11.2,5.8-21,5.8-29.2c0-6.9-1.4-13.1-4.3-18.5c-1.8-3.6-4.8-7.7-8.8-12.2c-4.4-4.9-7.2-8.3-8.3-10.2
			c10.4,3.2,19.2,9.5,26.4,18.9c7.8,10.4,11.7,22.6,11.7,36.4c0,5.2-0.6,10.5-1.7,15.8c-2.9,13.8-7.7,26-14.3,36.6
			c-5.2,7-10.3,14-15.4,21c-5,7-7.6,13.8-7.6,20.5L342,245c-1.6,0.5-3.2,1-4.8,1.5c-3.6,1.5-6.7,3.3-9.4,5.4
			c16.2,6.2,24.3,13.9,24.3,23.1c0,5.1-2.2,7.7-6.6,7.7c-1.5,0-2.9-0.5-4.3-1.4c-2.8-1.7-4.3-4-4.3-6.8c0-0.7,0.6-3,1.9-7
			c-5.9-4.2-11.2-6.3-15.8-6.3V278c3.2,2.7,4.8,5.5,4.8,8.3c0,2.9-1.1,5.5-3.3,7.6c-2.2,2.1-4.8,3.1-7.9,3.1c-3,0-5.5-1-7.7-3.1
			s-3.2-4.6-3.2-7.6c0-2.6,1.6-5.4,4.8-8.3v-16.7c-4.6,0-9.9,2.1-15.8,6.3c1.2,4,1.9,6.3,1.9,7c0,2.8-1.4,5.1-4.2,6.8
			c-1.4,0.9-2.8,1.4-4.3,1.4c-4.4,0-6.6-2.6-6.6-7.7c0-9.2,8.1-16.9,24.3-23.1c-3.9-3.2-8.6-5.5-14.1-7l-21.9,20.2
			c0-6.7-2.5-13.5-7.5-20.5s-10.1-14-15.3-21c-6.5-10.5-11.2-22.7-14.3-36.6c-1.1-5.4-1.7-10.8-1.7-16c0-13.7,3.9-25.8,11.7-36.2
			c7-9.5,15.8-15.8,26.4-18.9c-4.5,5.3-9.1,10.6-13.6,15.8c-5.4,7.1-8.2,15.4-8.2,24.8c0,8.3,1.9,18.1,5.8,29.6
			c4.1,12.1,13,24.1,26.7,35.9c9.2,8,19.3,15.1,30.4,21.1v-13.9c-1.9-1.6-5.2-4-9.7-7.3c-2-1.2-5.1-2.7-9.2-4.4
			c0.7-1.2,2-4.5,4.1-9.7c-10.1-4.2-18.2-10.9-24.3-20.1c-6.5-9.4-9.7-19.8-9.7-31.1c0-11.1,3.1-21.3,9.3-30.6
			c6.2-9.3,14.3-16.2,24.2-20.7c-0.9-2.5-1.8-4.6-2.5-6.5c2.2-1.5,7-5.4,14.5-11.7c1.5-1.4,3.3-3.6,5.4-6.8
			C314.9,76.6,316.4,74.4,316.9,74z M306.7,161.4c-0.2-12.7-2.9-27.8-8.2-45.2c-7.8,3.6-14.1,9.1-18.9,16.4
			c-4.8,7.3-7.1,15.4-7.1,24.2c0,9.1,2.5,17.3,7.7,24.8c4.8,7.1,11.2,12.5,19.2,16C304.5,183.6,306.9,171.6,306.7,161.4z
			 M327.1,161.4c-0.1,4.5,1.1,11.9,3.6,22.1c1.6,7,2.8,11.8,3.7,14.5c0.2,0.7,2.7-0.9,7.3-4.8c5.3-4.4,9.7-9.3,13.3-14.6
			c4.8-7.3,7.1-14.5,7.1-21.8c0-9-2.5-17.1-7.5-24.6c-5-7.4-11.5-12.9-19.6-16.4C330,134.1,327.3,149.3,327.1,161.4z"/>
	</g>
	<path class="st2" d="M239.6,205.4H138.4l157.2,155.2v-99.2C295.6,230.5,270.6,205.4,239.6,205.4z"/>
</g>
</svg>
