<?xml version="1.0" encoding="utf-8"?>
<!-- Generator: Adobe Illustrator 26.5.0, SVG Export Plug-In . SVG Version: 6.00 Build 0)  -->
<svg version="1.1" id="Layer_1" xmlns="http://www.w3.org/2000/svg" xmlns:xlink="http://www.w3.org/1999/xlink" x="0px" y="0px"
	 viewBox="0 0 2376 345.6" style="enable-background:new 0 0 2376 345.6;" xml:space="preserve">
<style type="text/css">
	.st0{fill:#3B4AFF;}
	.st1{fill:#FFFFFF;}
	.st2{fill:#FF8E2A;}
</style>
<g>
	<g>
		<path class="st0" d="M545.4,57.6c40.3,0,74.3,18.1,96.5,49.7l-33.3,27.4c-16.3-22.6-37.5-33.7-63.9-33.7
			c-43.8,0-73.6,31.6-73.6,75.4c0,44.4,30.9,76.7,76.4,76.7c26.4,0,47.6-10.8,60.4-28.5v-18.8h-63.2v-40.6h110.1V233
			c-10.4,18.4-25.3,33.7-44.8,45.1c-19.1,11.5-40.6,17-64.6,17c-67.4,1.4-123.6-53.1-122.6-118.8C421.5,110.4,477.7,56.6,545.4,57.6
			z"/>
		<path class="st0" d="M673.2,119.1h46.9v100c0,19.8,13.5,33,32.6,33c18.1,0,31.9-13.2,31.9-33v-100h46.9v96.2
			c0,47.9-34,79.9-78.8,79.9c-45.8,0-79.5-31.9-79.5-79.9V119.1z"/>
		<path class="st0" d="M964.6,160.4h-12.5c-28.1,0-46.2,15.3-46.2,44.8V291H859V119.1h43.1v20.5c11.5-14.2,28.1-22.6,47.2-22.6
			c5.9,0,10.8,0.7,15.3,2.1V160.4z"/>
		<path class="st0" d="M1144.8,30.5V291h-43.1v-21.2c-11.5,16.3-31.6,25.3-55.2,25.3c-47.9,0-83.3-38.2-83.3-89.9
			s35.4-89.9,83.3-89.9c21.9,0,38.9,6.9,51.4,20.5V30.5H1144.8z M1055.2,157.6c-25,0-44.4,19.1-44.4,47.2
			c0,28.8,19.1,47.6,44.4,47.6c23.6,0,43.4-16.3,43.4-47.2C1098.6,174.6,1078.8,157.6,1055.2,157.6z"/>
		<path class="st0" d="M1444.1,119.1l-79.9,176.1H1349l-49.3-100l-49.7,100h-15.3l-79.9-176.1h49.3l40.6,97.9l46.9-101.7h15.6
			l47.6,99.7l39.9-95.8H1444.1z"/>
		<path class="st0" d="M1591.4,291h-43.1v-16.7c-12.5,12.8-30.6,20.8-52.4,20.8c-36.5,0-59.4-21.2-59.4-51.4c0-30.9,25-50,64.9-50
			h43.1v-7.6c0-19.1-11.1-30.2-31.9-30.2c-17.7,0-30.2,7.3-45.5,23.6l-24.3-28.8c19.8-23.6,44.8-35.4,75-35.4
			c44.8,0,73.6,26,73.6,73.6V291z M1544.5,224.6h-36.8c-15.3,0-24,5.9-24,17.4c0,11.5,9.7,18.8,24.7,18.8c20.5,0,36.1-14.2,36.1-34
			V224.6z"/>
		<path class="st0" d="M1724.8,160.4h-12.5c-28.1,0-46.2,15.3-46.2,44.8V291h-46.9V119.1h43.1v20.5c11.5-14.2,28.1-22.6,47.2-22.6
			c5.9,0,10.8,0.7,15.3,2.1V160.4z"/>
		<path class="st0" d="M1877.2,291h-43.1v-16.7c-12.5,12.8-30.6,20.8-52.4,20.8c-36.5,0-59.4-21.2-59.4-51.4c0-30.9,25-50,64.9-50
			h43.1v-7.6c0-19.1-11.1-30.2-31.9-30.2c-17.7,0-30.2,7.3-45.5,23.6l-24.3-28.8c19.8-23.6,44.8-35.4,75-35.4
			c44.8,0,73.6,26,73.6,73.6V291z M1830.3,224.6h-36.8c-15.3,0-24,5.9-24,17.4c0,11.5,9.7,18.8,24.7,18.8c20.5,0,36.1-14.2,36.1-34
			V224.6z"/>
		<path class="st0" d="M2016.5,57.6c66-1.4,123.3,53.1,122.2,118.8c1,65.6-56.3,120.1-122.2,118.8c-66,1.4-122.6-53.1-121.5-118.8
			C1893.9,110.8,1950.5,56.2,2016.5,57.6z M2016.8,101c-42.4,0-73.6,31.3-73.6,75.4c0,44.1,31.3,75.4,73.6,75.4
			c42,0,73.6-31.3,73.6-75.4C2090.4,133,2058.8,101,2016.8,101z"/>
		<path class="st0" d="M2177.2,220.1c14.9,20.5,31.3,33.3,56.3,33.3c20.5,0,32.6-9.7,32.6-25.3c0-13.5-7.3-18.4-29.2-28.5
			l-24.7-11.1c-35.1-15.6-55.6-35.4-55.6-66c0-39.2,32.6-64.9,76-64.9c35.1,0,61.5,17,75.7,43.4l-31.9,24.7
			c-11.8-17.7-26.4-26.4-43.8-26.4c-16.3,0-28.5,8-28.5,22.2c0,12.2,7.3,17.7,26.7,26.4l26,11.5c38.5,17,56.6,36.1,56.6,67
			c0,42-34.4,68.8-80.2,68.8c-38.9,0-70.8-19.8-88.5-50.7L2177.2,220.1z"/>
	</g>
	<g>
		<path class="st0" d="M293.6,3h-236C29.2,3,6.1,26.1,6.1,54.5v140.4h95.9c29.3,0,53.1,23.8,53.1,53.1v94h138.5
			c28.4,0,51.5-23.1,51.5-51.5v-236C345.1,26.1,322.1,3,293.6,3z"/>
		<g>
			<path class="st1" d="M175.3,70.3c2,3.1,5.2,7.3,9.5,12.6c4.7,4.4,9.3,8.1,13.7,11.1c-0.2,0.6-1,2.6-2.4,6
				c9.7,4,17.5,10.3,23.5,19c6.1,9,9.2,19,9.2,29.8c0,10.9-3.1,20.7-9.2,29.6s-14.1,15.3-24,19.3c1.4,3.4,2.7,6.4,3.9,8.9
				c-1.8,0.7-4.7,2.1-8.5,4.2c-2.3,1.4-5.4,3.7-9.3,6.9v13.2c10.4-5.7,20-12.4,28.7-20c12.9-11.2,21.3-22.5,25.3-34
				c3.7-10.6,5.5-19.9,5.5-27.7c0-6.6-1.3-12.4-4-17.6c-1.7-3.4-4.5-7.3-8.4-11.6c-4.2-4.6-6.8-7.8-7.9-9.7c9.9,3,18.2,9,25,17.9
				c7.4,9.9,11.1,21.4,11.1,34.5c0,4.9-0.5,9.9-1.6,15c-2.8,13.1-7.3,24.7-13.5,34.7c-4.9,6.7-9.8,13.3-14.6,19.9
				c-4.8,6.6-7.2,13.1-7.2,19.4l-20.8-19.2c-1.5,0.4-3,0.9-4.5,1.5c-3.4,1.4-6.4,3.1-8.9,5.2c15.4,5.9,23.1,13.2,23.1,21.9
				c0,4.8-2.1,7.3-6.3,7.3c-1.4,0-2.7-0.4-4-1.3c-2.7-1.6-4-3.8-4-6.4c0-0.6,0.6-2.8,1.8-6.6c-5.6-4-10.6-6-15-6v15.8
				c3,2.6,4.5,5.2,4.5,7.9c0,2.8-1,5.2-3.1,7.2s-4.6,3-7.5,3c-2.8,0-5.2-1-7.3-3c-2-2-3.1-4.4-3.1-7.2c0-2.5,1.5-5.1,4.5-7.9v-15.8
				c-4.4,0-9.4,2-15,6c1.2,3.8,1.8,6,1.8,6.6c0,2.7-1.3,4.8-4,6.4c-1.3,0.9-2.6,1.3-4,1.3c-4.2,0-6.3-2.4-6.3-7.3
				c0-8.7,7.7-16,23.1-21.9c-3.7-3-8.1-5.2-13.4-6.6l-20.8,19.2c0-6.3-2.4-12.8-7.1-19.4c-4.7-6.6-9.6-13.2-14.5-19.9
				c-6.1-10-10.6-21.5-13.5-34.7c-1.1-5.2-1.6-10.2-1.6-15.2c0-13,3.7-24.4,11.1-34.3c6.7-9,15-15,25-17.9
				c-4.3,5.1-8.6,10.1-12.9,15c-5.2,6.8-7.7,14.6-7.7,23.5c0,7.8,1.8,17.2,5.5,28c3.9,11.5,12.3,22.8,25.3,34
				c8.7,7.6,18.3,14.3,28.9,20v-13.2c-1.8-1.5-4.9-3.8-9.2-6.9c-1.9-1.2-4.8-2.6-8.7-4.2c0.6-1.2,1.9-4.2,3.9-9.2
				c-9.6-4-17.2-10.3-23.1-19c-6.1-8.9-9.2-18.8-9.2-29.5c0-10.5,2.9-20.2,8.8-29c5.9-8.8,13.5-15.4,23-19.7
				c-0.9-2.4-1.7-4.4-2.4-6.1c2-1.4,6.6-5.1,13.7-11.1c1.4-1.3,3.1-3.4,5.2-6.4C173.4,72.7,174.9,70.7,175.3,70.3z M165.6,153.1
				c-0.2-12-2.8-26.3-7.7-42.9c-7.4,3.4-13.4,8.6-17.9,15.6c-4.5,6.9-6.8,14.6-6.8,23c0,8.6,2.4,16.4,7.3,23.5
				c4.5,6.8,10.6,11.8,18.2,15.2C163.5,174.3,165.9,162.8,165.6,153.1z M185,153.1c-0.1,4.3,1,11.3,3.4,21
				c1.5,6.7,2.7,11.2,3.5,13.7c0.2,0.6,2.5-0.9,6.9-4.5c5-4.2,9.2-8.8,12.6-13.9c4.5-6.9,6.8-13.8,6.8-20.6c0-8.5-2.4-16.3-7.1-23.3
				c-4.7-7-10.9-12.2-18.5-15.6C187.7,127.3,185.2,141.7,185,153.1z"/>
		</g>
		<path class="st2" d="M102.1,194.9H6.1l149,147.1v-94C155.2,218.7,131.4,194.9,102.1,194.9z"/>
	</g>
</g>
</svg>
