<?xml version="1.0" encoding="utf-8"?>
<!-- Generator: Adobe Illustrator 26.5.0, SVG Export Plug-In . SVG Version: 6.00 Build 0)  -->
<svg version="1.1" id="Layer_2_00000047048141717486025720000001038064370594997691_"
	 xmlns="http://www.w3.org/2000/svg" xmlns:xlink="http://www.w3.org/1999/xlink" x="0px" y="0px" viewBox="0 0 1313.7 237.1"
	 style="enable-background:new 0 0 1313.7 237.1;" xml:space="preserve">
<style type="text/css">
	.st0{fill:#3B4AFF;}
</style>
<g>
	<path class="st0" d="M86.9,40.2c27.9,0,51.4,12.5,66.8,34.4l-23.1,19c-11.3-15.6-26-23.3-44.2-23.3c-30.3,0-51,21.9-51,52.2
		c0,30.8,21.4,53.1,52.9,53.1c18.3,0,32.9-7.5,41.8-19.7v-13H86.4v-28.1h76.2v46.9c-7.2,12.7-17.5,23.3-31,31.3
		c-13.2,7.9-28.1,11.8-44.7,11.8c-46.6,1-85.6-36.8-84.9-82.2C1.1,76.7,40,39.5,86.9,40.2z"/>
	<path class="st0" d="M175.3,82.7h32.5V152c0,13.7,9.4,22.8,22.6,22.8c12.5,0,22.1-9.1,22.1-22.8V82.7H285v66.6
		c0,33.2-23.6,55.3-54.6,55.3c-31.7,0-55-22.1-55-55.3V82.7z"/>
	<path class="st0" d="M377,111.3h-8.7c-19.5,0-32,10.6-32,31v59.4H304v-119h29.8v14.2c7.9-9.9,19.5-15.6,32.7-15.6
		c4.1,0,7.5,0.5,10.6,1.4V111.3z"/>
	<path class="st0" d="M501.8,21.4v180.3H472v-14.7c-7.9,11.3-21.9,17.5-38.2,17.5c-33.2,0-57.7-26.4-57.7-62.3s24.5-62.3,57.7-62.3
		c15.1,0,26.9,4.8,35.6,14.2V21.4H501.8z M439.8,109.4c-17.3,0-30.8,13.2-30.8,32.7c0,20,13.2,32.9,30.8,32.9
		c16.3,0,30-11.3,30-32.7C469.8,121.2,456.1,109.4,439.8,109.4z"/>
	<path class="st0" d="M709,82.7l-55.3,121.9h-10.6L609,135.4l-34.4,69.2h-10.6L508.8,82.7h34.1l28.1,67.8l32.5-70.4h10.8l32.9,69
		l27.6-66.3H709z"/>
	<path class="st0" d="M811,201.7h-29.8v-11.5c-8.7,8.9-21.2,14.4-36.3,14.4c-25.2,0-41.1-14.7-41.1-35.6c0-21.4,17.3-34.6,45-34.6
		h29.8v-5.3c0-13.2-7.7-20.9-22.1-20.9c-12.3,0-20.9,5-31.5,16.3l-16.8-20c13.7-16.3,31-24.5,51.9-24.5c31,0,51,18,51,51V201.7z
		 M778.5,155.8H753c-10.6,0-16.6,4.1-16.6,12c0,7.9,6.7,13,17.1,13c14.2,0,25-9.9,25-23.6V155.8z"/>
	<path class="st0" d="M903.3,111.3h-8.7c-19.5,0-32,10.6-32,31v59.4h-32.5v-119H860v14.2c7.9-9.9,19.5-15.6,32.7-15.6
		c4.1,0,7.5,0.5,10.6,1.4V111.3z"/>
	<path class="st0" d="M1008.8,201.7H979v-11.5c-8.7,8.9-21.2,14.4-36.3,14.4c-25.2,0-41.1-14.7-41.1-35.6c0-21.4,17.3-34.6,45-34.6
		h29.8v-5.3c0-13.2-7.7-20.9-22.1-20.9c-12.3,0-20.9,5-31.5,16.3l-16.8-20c13.7-16.3,31-24.5,51.9-24.5c31,0,51,18,51,51V201.7z
		 M976.4,155.8h-25.5c-10.6,0-16.6,4.1-16.6,12c0,7.9,6.7,13,17.1,13c14.2,0,25-9.9,25-23.6V155.8z"/>
	<path class="st0" d="M1105.2,40.2c45.7-1,85.3,36.8,84.6,82.2c0.7,45.4-38.9,83.2-84.6,82.2c-45.7,1-84.9-36.8-84.1-82.2
		C1020.4,77,1059.5,39.2,1105.2,40.2z M1105.5,70.2c-29.3,0-51,21.6-51,52.2c0,30.5,21.6,52.2,51,52.2c29.1,0,51-21.6,51-52.2
		C1156.4,92.3,1134.5,70.2,1105.5,70.2z"/>
	<path class="st0" d="M1216.5,152.7c10.3,14.2,21.6,23.1,38.9,23.1c14.2,0,22.6-6.7,22.6-17.5c0-9.4-5-12.7-20.2-19.7l-17.1-7.7
		c-24.3-10.8-38.5-24.5-38.5-45.7c0-27.2,22.6-45,52.6-45c24.3,0,42.6,11.8,52.4,30l-22.1,17.1C1277.1,75,1267,69,1255,69
		c-11.3,0-19.7,5.5-19.7,15.4c0,8.4,5.1,12.3,18.5,18.3l18,7.9c26.7,11.8,39.2,25,39.2,46.4c0,29.1-23.8,47.6-55.5,47.6
		c-26.9,0-49-13.7-61.3-35.1L1216.5,152.7z"/>
</g>
</svg>
