<?xml version="1.0" encoding="utf-8"?>
<!-- Generator: Adobe Illustrator 25.4.8, SVG Export Plug-In . SVG Version: 6.00 Build 0)  -->
<svg version="1.1" id="Layer_1" xmlns="http://www.w3.org/2000/svg" xmlns:xlink="http://www.w3.org/1999/xlink" x="0px" y="0px"
	 viewBox="0 0 64 64" style="enable-background:new 0 0 64 64;" xml:space="preserve">
<style type="text/css">
	.st0{display:none;}
	.st1{display:inline;fill-rule:evenodd;clip-rule:evenodd;fill:#E82127;}
	.st2{display:inline;fill:#FFFFFF;}
	.st3{fill:#F08700;}
	.st4{fill:#191D37;}
	.st5{fill:none;stroke:#F08600;stroke-miterlimit:10;}
	.st6{fill:#FFFFFF;}
</style>
<g id="Tesla" class="st0">
	<circle id="Oval" class="st1" cx="32" cy="32" r="32"/>
	<path id="Combined-Shape" class="st2" d="M27.7,17.1l4.3,5.3l4.3-5.3c0,0,7.2,0.2,14.5,3.4l0.3,0.2c-1.9,2.9-5.7,4.3-5.7,4.3
		c-0.3-2.5-2-3.1-7.7-3.1l0,0L32.1,55l-5.9-33.2c-5.6,0-7.4,0.6-7.6,3.1c0,0-3.8-1.4-5.7-4.3C20.3,17.2,27.7,17.1,27.7,17.1
		L27.7,17.1z M32.1,13c6.2,0,13.4,1.1,21.1,4.1c0,0-0.2,0.7-1.2,2.4c-7-3.1-13.9-4-19.9-4c-6,0-12.9,0.9-19.9,4
		C11.3,18,11,17.1,11,17.1C18.7,14.1,25.9,13,32.1,13z"/>
</g>
<circle class="st3" cx="31.9" cy="32.1" r="31.9"/>
<circle class="st4" cx="31.9" cy="32.2" r="29.3"/>
<circle class="st5" cx="32" cy="32.1" r="21.3"/>
<g>
	<path class="st6" d="M5.6,27.2l0.5,0.1c0.1-0.2,0.3-0.4,0.5-0.6c0.2-0.2,0.5-0.2,0.7-0.2c0.5,0.1,0.8,0.4,0.9,0.9l-0.4-0.1
		c0-0.1-0.1-0.2-0.1-0.3C7.6,27.1,7.4,27,7.2,27c-0.2,0-0.3,0-0.5,0.2c-0.2,0.1-0.3,0.3-0.3,0.5c0,0.2,0,0.4,0.1,0.6
		c0.1,0.2,0.2,0.3,0.4,0.3c0.2,0,0.3,0,0.4,0c0.1,0,0.2-0.1,0.2-0.2L8,28.4c-0.2,0.5-0.6,0.6-1.2,0.5c-0.2,0-0.5-0.2-0.6-0.4
		C6.1,28.3,6,28,6,27.7l-0.5-0.1l-0.2,1.1l-0.4-0.1l0.5-2.9l0.4,0.1L5.6,27.2z"/>
	<path class="st6" d="M6,25.6l1.4,0.4l-0.1,0.4l-1.4-0.4l-0.1,0.3l-0.4-0.1L5.7,25l0.4,0.1L6,25.6z"/>
	<path class="st6" d="M6.5,23.9L6.9,24c0.1-0.2,0.3-0.4,0.6-0.5c0.3-0.1,0.5-0.2,0.8-0.1c0.5,0.2,0.8,0.5,0.8,1l-0.4-0.1
		c0-0.1-0.1-0.2-0.1-0.3c-0.1-0.1-0.2-0.2-0.4-0.2c-0.2-0.1-0.3,0-0.5,0.1c-0.2,0.1-0.3,0.3-0.4,0.5c-0.1,0.2-0.1,0.4,0,0.6
		c0.1,0.2,0.2,0.3,0.4,0.4c0.2,0.1,0.3,0.1,0.4,0.1c0.1,0,0.2-0.1,0.3-0.2l0.4,0.1c-0.3,0.4-0.7,0.6-1.2,0.4
		c-0.2-0.1-0.4-0.2-0.6-0.5c-0.1-0.2-0.2-0.5-0.1-0.8l-0.5-0.2L6,25.3l-0.4-0.1l0.9-2.8l0.4,0.1L6.5,23.9z"/>
	<path class="st6" d="M7.9,20.3l0.5,0.4C8.7,20.8,8.9,21,9,21.2c0.1,0,0.3,0,0.6,0c0.2,0,0.5,0,0.7,0.1l-0.2,0.4
		c-0.1,0-0.3,0-0.5-0.1c-0.1,0-0.3,0-0.4,0c0,0,0.1,0.1,0.1,0.1c0.1,0.1,0.1,0.2,0.1,0.3c0,0.1,0,0.2,0,0.3c0,0.1,0,0.3-0.1,0.3
		c-0.1,0.2-0.2,0.3-0.3,0.4c-0.1,0.1-0.2,0.2-0.4,0.2c-0.2,0-0.4,0-0.6,0c0,0-0.1,0-0.2-0.1c-0.3-0.1-0.4-0.4-0.5-0.7
		c0-0.2,0-0.4,0.1-0.6c0.1-0.1,0.1-0.2,0.2-0.3c0.2-0.2,0.4-0.3,0.6-0.3c-0.2-0.2-0.4-0.3-0.6-0.5c-0.1,0-0.1-0.1-0.1-0.1l-1,2.1
		l-0.4-0.2l1.3-2.9l0.4,0.2L7.9,20.3z M8.8,21.6c0,0-0.1,0-0.1,0c-0.1,0-0.2,0.1-0.3,0.1C8.2,21.8,8.1,22,8,22.2c0,0.1,0,0.2,0,0.3
		c0,0.1,0.1,0.2,0.2,0.3c0,0,0.1,0.1,0.1,0.1c0.1,0.1,0.3,0.1,0.4,0C8.9,22.8,9,22.7,9,22.6c0.1-0.2,0.1-0.4,0-0.6
		C9,21.9,8.9,21.7,8.8,21.6z"/>
	<path class="st6" d="M9.6,17.4l0.4,0.3c0.2-0.2,0.4-0.3,0.7-0.4c0.3-0.1,0.5,0,0.7,0.1c0.5,0.3,0.6,0.7,0.5,1.2l-0.3-0.2
		c0-0.1,0-0.3,0-0.3c0-0.1-0.1-0.2-0.3-0.3c-0.2-0.1-0.3-0.1-0.5-0.1c-0.2,0.1-0.4,0.2-0.5,0.3c-0.1,0.2-0.2,0.3-0.1,0.6
		c0,0.2,0.1,0.4,0.3,0.5c0.2,0.1,0.3,0.2,0.4,0.2c0.1,0,0.2,0,0.3-0.1l0.3,0.2c-0.4,0.3-0.8,0.3-1.3,0c-0.2-0.1-0.3-0.3-0.4-0.6
		c-0.1-0.3,0-0.5,0.1-0.8l-0.4-0.3l-0.6,0.9l-0.3-0.2l1.6-2.4l0.3,0.2L9.6,17.4z"/>
	<path class="st6" d="M10.7,16l1.1,0.9l-0.2,0.3l-1.1-0.9l-0.2,0.3l-0.3-0.2l0.8-1l0.3,0.2L10.7,16z"/>
	<path class="st6" d="M12.5,13.8l2,1.7l-0.3,0.3l-0.9-0.8l-0.8,0.9c0.1,0.1,0.3,0.4,0.5,0.7c0.1,0.2,0.1,0.3,0,0.5
		c-0.1,0.1-0.3,0.2-0.4,0c-0.1-0.1-0.1-0.1-0.2-0.2c-0.1-0.1-0.1-0.3-0.2-0.4c-0.1-0.2-0.2-0.4-0.4-0.5c-0.1-0.1-0.2-0.2-0.2-0.2
		c-0.3-0.2-0.5-0.3-0.6-0.2l-0.3,0.3l-0.3-0.3l0.4-0.4c0.2-0.2,0.4-0.2,0.7,0c0.1,0.1,0.3,0.2,0.6,0.5l0.8-0.9l-1-0.9l0.6-0.7
		l0.3,0.3L12.5,13.8z"/>
	<path class="st6" d="M16.1,10.6L15.7,11l1.1,1.4c0.1,0.2,0.2,0.3,0.2,0.5c0,0.3-0.1,0.5-0.4,0.8c-0.2,0.2-0.5,0.2-0.7,0.2
		c-0.1,0-0.3-0.1-0.5-0.3c-0.3-0.2-0.4-0.3-0.5-0.4l-0.2,0.2c-0.1,0.1-0.1,0-0.2-0.1c-0.1-0.1-0.1-0.3-0.2-0.4c0-0.1,0-0.2,0.1-0.3
		c0-0.1,0.1-0.2,0.2-0.2c0.1-0.1,0.2-0.1,0.3,0l0.2,0.2l0.9-0.8l-0.5-0.7l-1.6,1.3l-0.3-0.3l2.4-1.9L16.1,10.6z M16.2,12.2l-0.9,0.8
		c0.1,0.1,0.3,0.2,0.5,0.4c0.1,0,0.2,0.1,0.2,0.1c0.1,0,0.2,0,0.3-0.1c0,0,0.1-0.1,0.1-0.1c0.2-0.2,0.3-0.4,0.1-0.6L16.2,12.2z"/>
	<path class="st6" d="M18.5,9.1l-0.4,0.3c0,0.1,0.1,0.2,0.1,0.4c0,0.2,0,0.3,0,0.5c0.3,0,0.5,0.1,0.6,0.3c0.1,0.2,0.1,0.3,0.1,0.4
		c0,0.1-0.1,0.3-0.2,0.6c0.1,0,0.1,0,0.2,0.1c0.1,0,0.2,0.1,0.2,0.1c0,0,0,0.1,0,0.1c0,0-0.1,0-0.3,0c-0.2,0-0.3,0-0.3,0
		c0,0-0.1,0-0.1,0.1C18.3,12,18.3,12,18.2,12c-0.1,0.1-0.3,0.1-0.4,0.2c0.2,0.1,0.2,0.1,0.3,0.2c0,0,0,0.1,0,0.1c0,0-0.1,0-0.3,0
		c-0.1,0-0.2-0.1-0.3-0.1c-0.2,0-0.3-0.1-0.4-0.2c-0.1-0.1,0-0.2,0-0.2c0,0,0.1,0,0.1,0c0.3,0,0.6-0.1,1-0.3
		c0.1-0.1,0.3-0.2,0.3-0.4c0.1-0.2,0.1-0.3,0-0.4c-0.2-0.2-0.4-0.3-0.6-0.1c-0.1,0-0.2,0.1-0.3,0.2c-0.1,0.1-0.3,0.2-0.3,0.3
		c-0.1,0.1-0.2,0.2-0.4,0.2c-0.1,0-0.2,0-0.3-0.1c-0.1-0.2,0-0.4,0.4-0.6c0.1,0,0.2-0.1,0.3-0.1c0.1,0,0.2-0.1,0.2-0.1
		c0.1-0.1,0.2-0.2,0.2-0.4c0-0.1,0-0.2,0-0.4L16,10.7l-0.2-0.3l2.6-1.7L18.5,9.1z"/>
	<path class="st6" d="M19.3,11.9l0.3,0.5c0.1,0.2,0.2,0.4,0.1,0.6c0,0.2-0.1,0.3-0.3,0.4c-0.2,0.1-0.4,0.1-0.7,0
		c-0.2-0.1-0.4-0.2-0.5-0.3c-0.1-0.2-0.1-0.3,0-0.4c0,0,0.1-0.1,0.1-0.1c0.1-0.1,0.2-0.1,0.3,0c0,0,0,0.1-0.1,0.1
		c-0.1,0.1-0.1,0.1-0.1,0.2c0,0,0,0.1,0,0.1c0,0.1,0.1,0.1,0.3,0.2c0.1,0,0.2,0.1,0.2,0.1c0.1,0,0.1,0,0.2-0.1
		c0.1-0.1,0.1-0.3,0-0.5L19,12.1L19.3,11.9z"/>
	<path class="st6" d="M20.2,8.2l0.6,1.1l-1.5,0.8c0,0.1,0,0.1,0.1,0.2c0.1,0.1,0.2,0.2,0.3,0.3c0.3,0.1,0.5,0.1,0.8,0
		c0.1,0,0.2-0.1,0.4-0.3c0.1-0.2,0.2-0.3,0.3-0.3c0,0,0,0,0.1,0c0,0.1,0,0.2-0.1,0.4c-0.1,0.2-0.3,0.4-0.5,0.5
		c-0.5,0.3-0.9,0.2-1.3-0.1c-0.2-0.1-0.3-0.3-0.4-0.5l-0.2,0.1c-0.1,0-0.1,0-0.2-0.1c-0.1-0.2-0.1-0.3,0-0.5
		c0.1-0.2,0.2-0.3,0.3-0.4c0.1,0,0.2,0,0.2,0l0.1,0.3l1.1-0.6l-0.4-0.8l-1.9,1l-0.2-0.4l2.7-1.4L20.7,8L20.2,8.2z"/>
	<path class="st6" d="M21.6,7.6l-0.4,0.2l1.1,2.4l-0.4,0.2L20.8,8l-0.4,0.2l-0.2-0.4l0.4-0.2c-0.1-0.3-0.2-0.4-0.3-0.5
		c-0.2-0.2-0.3-0.2-0.6-0.1c-0.2,0.1-0.3,0.2-0.3,0.3c0,0.1,0,0.2,0,0.3c0,0.1,0,0.1,0.1,0.2l-0.3,0.2c-0.1-0.1-0.1-0.3-0.1-0.5
		c0-0.1,0-0.3,0.1-0.4c0.1-0.1,0.2-0.2,0.3-0.3c0.4-0.2,0.6-0.2,0.9,0c0.2,0.2,0.4,0.4,0.5,0.8l0.4-0.2L21.6,7.6z"/>
	<path class="st6" d="M25.4,6.4L25.5,7c0,0.3,0,0.5-0.1,0.8c0.1,0.1,0.2,0.2,0.4,0.4c0.1,0.2,0.3,0.4,0.4,0.6L25.8,9
		c-0.1-0.1-0.1-0.2-0.2-0.4c-0.1-0.1-0.2-0.2-0.3-0.3c0,0.1,0,0.1-0.1,0.2c-0.1,0.1-0.1,0.2-0.2,0.3c-0.1,0.1-0.1,0.1-0.3,0.2
		c-0.1,0.1-0.2,0.1-0.3,0.2c-0.2,0.1-0.3,0.1-0.5,0.1c-0.1,0-0.3-0.1-0.4-0.2c-0.2-0.1-0.3-0.3-0.3-0.5c0,0,0-0.1,0-0.2
		c-0.1-0.3,0-0.6,0.2-0.8c0.1-0.2,0.3-0.3,0.5-0.3c0.1,0,0.3-0.1,0.4,0c0.3,0,0.5,0.1,0.7,0.3c0-0.2,0-0.5,0-0.8c0-0.1,0-0.1,0-0.2
		l-2.2,0.7l-0.1-0.4l3.1-0.9l0.1,0.4L25.4,6.4z M25,7.9c0,0-0.1-0.1-0.1-0.1c-0.1-0.1-0.2-0.1-0.3-0.2c-0.2-0.1-0.4-0.1-0.6,0
		c-0.1,0-0.2,0.1-0.2,0.2c-0.1,0.1-0.1,0.2-0.1,0.4c0,0,0,0.1,0,0.1c0,0.1,0.1,0.2,0.3,0.3s0.3,0.1,0.4,0c0.2-0.1,0.4-0.2,0.5-0.4
		C24.9,8.2,24.9,8.1,25,7.9z"/>
	<path class="st6" d="M28.1,5.9l-0.2,0.7c0.5,0.1,0.8,0.3,0.9,0.7c0.1,0.4,0,0.7-0.2,1c-0.1,0.1-0.3,0.2-0.5,0.3L28,8.1
		C28.1,8.1,28.2,8,28.3,8c0.1-0.1,0.2-0.3,0.1-0.6c0-0.2-0.2-0.4-0.6-0.4l-0.3,0.8l0,0l-0.5-0.6c-0.3,0.2-0.5,0.4-0.4,0.6
		c0,0.3,0.2,0.4,0.3,0.5c0.1,0,0.2,0.1,0.3,0.1l0.1,0.4c-0.2,0-0.4,0-0.6-0.1c-0.3-0.1-0.5-0.4-0.5-0.8c-0.1-0.4,0.1-0.7,0.5-1
		l-0.4-0.6l-0.6,0.1l-0.1-0.4l3.2-0.5l0.1,0.4L28.1,5.9z M27.7,5.9l-1,0.2l0.6,0.8l0,0L27.7,5.9z"/>
	<path class="st6" d="M29.2,5.7l0.1,1.4l-0.4,0l-0.1-1.4l-0.3,0l0-0.4l1.2-0.1l0,0.4L29.2,5.7z"/>
	<path class="st6" d="M33.5,5.7c0,0.1-0.1,0.3-0.1,0.5c-0.1,0.2-0.2,0.4-0.4,0.5c0.1,0.1,0.2,0.1,0.2,0.2c0.2,0.2,0.2,0.4,0.2,0.6
		c0,0.3-0.1,0.5-0.4,0.6c-0.2,0.1-0.5,0.2-0.9,0.2c-0.2,0-0.5-0.1-0.8-0.4C31.1,7.7,31,7.5,31,7.4c0,0,0,0,0.1,0
		c0.1,0,0.2,0.1,0.4,0.2c0.3,0.1,0.5,0.2,0.6,0.3c0.1,0,0.1,0,0.2,0c0.2,0,0.4,0,0.5-0.1c0.2-0.1,0.2-0.2,0.2-0.4
		C33,7.2,33,7.1,32.8,7c-0.2-0.1-0.3-0.2-0.5-0.2c-0.1,0-0.1,0-0.2,0c-0.1,0-0.2,0-0.3,0.1c-0.1,0-0.1,0-0.2,0
		c-0.2,0-0.4-0.1-0.3-0.3c0-0.2,0.1-0.3,0.4-0.3c0,0,0.1,0,0.1,0c0,0,0.1,0,0.1,0c0,0,0.1,0,0.2,0c0.1,0,0.3,0,0.3,0
		c0.2,0,0.4,0,0.5-0.1C32.9,6.2,33,6,33.1,5.7L31,5.6l0-0.4L34,5.3l0,0.4L33.5,5.7z"/>
	<path class="st6" d="M31.8,3.9c0.3,0,0.6,0.1,0.9,0.3c0.1,0.1,0.3,0.2,0.4,0.4c0.2,0.2,0.3,0.4,0.3,0.5c0,0,0,0,0,0
		c0,0-0.1-0.1-0.3-0.3c-0.2-0.2-0.5-0.4-0.7-0.5c-0.2-0.1-0.5-0.1-0.8-0.1c-0.1-0.1-0.1-0.1-0.1-0.2c0-0.1,0-0.1,0.1-0.2
		C31.6,4,31.7,3.9,31.8,3.9z"/>
	<path class="st6" d="M35.6,5.9l-0.2,1.8c0,0.2-0.1,0.4-0.2,0.5c-0.1,0.2-0.3,0.2-0.5,0.2c-0.3,0-0.6-0.3-0.9-0.6
		c-0.3-0.4-0.4-0.7-0.4-1.1c0-0.3,0.3-0.5,0.7-0.4l1.1,0.1l0.1-0.6l-1.8-0.2l0-0.4l2.8,0.3l0,0.4L35.6,5.9z M35.1,6.8l-1-0.1
		c-0.1,0-0.2,0-0.2,0c0,0-0.1,0.1-0.1,0.1c0,0.2,0.1,0.4,0.3,0.7C34.3,7.8,34.5,8,34.7,8c0.1,0,0.2,0,0.2-0.1
		C34.9,7.9,35,7.8,35,7.7L35.1,6.8z"/>
	<path class="st6" d="M34.1,4c0.3,0.1,0.6,0.2,0.8,0.4c0.1,0.1,0.2,0.2,0.4,0.5c0.2,0.3,0.3,0.4,0.2,0.5c0,0,0,0,0,0
		c0,0-0.1-0.1-0.3-0.3c-0.2-0.3-0.4-0.4-0.6-0.6c-0.2-0.1-0.4-0.2-0.8-0.2c-0.1-0.1-0.1-0.1-0.1-0.2c0-0.1,0-0.1,0.1-0.1
		C33.9,4,34,4,34.1,4z"/>
	<path class="st6" d="M40,6.9l-0.5-0.1l-0.2,0.4c-0.1,0.1-0.2,0.3-0.4,0.4C39,7.8,39,8.1,39,8.3c-0.1,0.3-0.3,0.5-0.5,0.6
		c-0.3,0.1-0.5,0.1-0.9,0c-0.2,0-0.4-0.2-0.6-0.4c-0.2-0.2-0.3-0.3-0.3-0.4c0,0,0,0,0,0c0,0,0.1,0.1,0.4,0.2
		c0.3,0.1,0.4,0.2,0.5,0.2c0.2,0.1,0.5,0.1,0.6,0c0.2-0.1,0.3-0.2,0.3-0.4c0-0.1,0-0.2-0.1-0.4C38.2,8,37.9,8.1,37.6,8
		c-0.3-0.1-0.5-0.2-0.6-0.3C37,7.5,36.9,7.4,37,7.2c0-0.2,0.2-0.3,0.3-0.4c0.2-0.1,0.4-0.1,0.7,0c0.3,0.1,0.5,0.3,0.6,0.5
		c0.1,0,0.2-0.2,0.3-0.3C39,6.9,39,6.8,39.1,6.7l-2-0.5l0.1-0.4l2.9,0.8L40,6.9z M37.8,7.1c-0.3-0.1-0.5,0-0.5,0.1c0,0,0,0.1,0,0.1
		c0,0.1,0.1,0.2,0.3,0.3c0.1,0,0.2,0,0.3,0c0,0,0.1-0.1,0.3-0.1C38.2,7.3,38,7.2,37.8,7.1z"/>
	<path class="st6" d="M40.3,7.1l-0.5,1.4l-0.4-0.1L40,6.9l-0.3-0.1l0.1-0.4l1.2,0.4l-0.1,0.4L40.3,7.1z"/>
	<path class="st6" d="M41.2,7.4l-0.7-0.3l0.2-0.4l2.8,1.2l-0.2,0.4l-1.7-0.7c0,0.1,0.1,0.2,0.1,0.2C42,8,42.1,8.1,42.2,8.2
		c0,0,0.2,0.2,0.6,0.5L42.6,9c-0.2-0.2-0.4-0.3-0.5-0.4l-0.2,0.6c0,0.1-0.1,0.2-0.1,0.1c0,0-0.1-0.1-0.1-0.3c0-0.2-0.1-0.3-0.1-0.3
		c-0.1-0.1-0.2-0.2-0.3-0.2c-0.1,0-0.2,0-0.2,0c-0.4,0.2-0.6,0.3-0.6,0.4c0,0,0,0,0,0c0,0,0,0.1,0.2,0.4c0.2,0.2,0.4,0.4,0.7,0.6
		c0,0,0.2,0,0.5,0.1c0.3,0,0.5,0.1,0.5,0.1c0,0,0,0,0,0c0,0.1-0.2,0.1-0.5,0.2c-0.3,0-0.5,0-0.7-0.1c-0.3-0.1-0.6-0.3-0.8-0.5
		C40.2,9.4,40.1,9.2,40,9c-0.1-0.2-0.1-0.3-0.1-0.3c0,0,0,0,0,0c0-0.1,0.2-0.2,0.4-0.3c0.3-0.2,0.5-0.3,0.7-0.3c0.1,0,0.2,0,0.3,0
		c0.1,0,0.3,0.2,0.4,0.4c0-0.1,0.1-0.1,0.1-0.1c-0.1-0.1-0.2-0.2-0.3-0.3c-0.1-0.1-0.1-0.2-0.2-0.3C41.3,7.7,41.3,7.6,41.2,7.4z"/>
	<path class="st6" d="M42,5.9c0.3,0.1,0.5,0.4,0.7,0.6c0.1,0.1,0.2,0.3,0.2,0.6C43,7.3,43,7.5,43,7.6c0,0,0,0,0,0
		c0,0-0.1-0.1-0.2-0.4c-0.1-0.3-0.3-0.5-0.4-0.7c-0.1-0.1-0.4-0.3-0.7-0.4c-0.1-0.1-0.1-0.2,0-0.2c0-0.1,0.1-0.1,0.2-0.1
		C41.8,5.8,41.9,5.8,42,5.9z"/>
	<path class="st6" d="M46.4,10l-1.4,2.2l-0.4-0.2l0.6-1.1l-1-0.6c-0.1,0.1-0.3,0.3-0.5,0.6c-0.2,0.2-0.3,0.2-0.5,0.1
		c-0.2-0.1-0.2-0.2-0.1-0.4c0-0.1,0.1-0.1,0.1-0.2c0.2-0.1,0.3-0.2,0.5-0.4c0.2-0.1,0.3-0.3,0.4-0.5c0.1-0.1,0.1-0.2,0.2-0.4
		c0.1-0.1,0.1-0.3,0.1-0.4l-0.4-0.2l0.2-0.3L47,9.9l-0.2,0.3L46.4,10z M46.1,9.8L45,9.2c-0.1,0.3-0.2,0.5-0.3,0.7
		c0,0.1-0.1,0.1-0.1,0.2l1,0.6L46.1,9.8z"/>
	<path class="st6" d="M48.5,11.5L47.4,13c-0.1,0.2-0.3,0.3-0.4,0.3c-0.2,0.1-0.4,0-0.6-0.1c-0.3-0.2-0.4-0.5-0.4-1
		c0-0.5,0-0.8,0.2-1.1c0.2-0.3,0.5-0.3,0.8,0l0.9,0.6l0.3-0.5l-1.5-1.1l0.2-0.3l2.3,1.7l-0.2,0.3L48.5,11.5z M47.5,12.1l-0.8-0.6
		c-0.1-0.1-0.2-0.1-0.2-0.1c-0.1,0-0.1,0-0.1,0.1c-0.1,0.1-0.1,0.4-0.1,0.7c0,0.4,0.1,0.6,0.2,0.7c0.1,0,0.1,0.1,0.2,0
		c0.1,0,0.1-0.1,0.2-0.1L47.5,12.1z"/>
	<path class="st6" d="M51,13.9l-0.4-0.3l-1.8,1.9l-0.3-0.3l0.3-0.4c-0.1,0-0.3-0.1-0.4-0.1c-0.1,0-0.2-0.1-0.3-0.2
		c-0.1-0.1-0.2-0.3-0.3-0.6c-0.1-0.3-0.1-0.6,0-0.7c0.1-0.1,0.2-0.1,0.5-0.1c0.2,0,0.4,0,0.6,0c0-0.2,0-0.4,0-0.5
		c0-0.2,0.1-0.3,0.3-0.5l-0.4-0.3l0.3-0.3l2.2,2.1L51,13.9z M49.6,14.1l-0.5-0.5c-0.1,0-0.2-0.1-0.4-0.1c-0.2,0-0.3,0-0.5,0
		c0,0.3,0.1,0.5,0.3,0.7c0.1,0.1,0.4,0.2,0.7,0.2L49.6,14.1z M50.4,13.2l-0.9-0.9c-0.1,0.1-0.1,0.2-0.1,0.2c0,0.1-0.1,0.2-0.1,0.3
		c0,0,0,0.2,0.1,0.4l0.5,0.5L50.4,13.2z"/>
	<path class="st6" d="M50.7,12.6c-0.1-0.1-0.2-0.2-0.2-0.4c0-0.1,0-0.3,0-0.4c0-0.1,0.1-0.2,0.2-0.3c0.1-0.1,0.2-0.1,0.2-0.1
		c0,0,0,0.1,0,0.2c-0.1,0.1-0.1,0.2-0.1,0.3c0,0.2,0,0.3,0.2,0.5c0.2,0.2,0.3,0.2,0.5,0.2c0.1,0,0.2-0.1,0.3-0.1
		c0.1,0,0.1-0.1,0.2,0c0,0,0,0.1-0.1,0.2c-0.1,0.1-0.2,0.2-0.3,0.2c-0.1,0-0.2,0-0.4,0C50.9,12.7,50.8,12.6,50.7,12.6z"/>
	<path class="st6" d="M52.6,15.8c-0.1,0.1-0.3,0.1-0.4,0.2C52,16,51.8,16,51.6,16c0,0.1,0,0.2,0,0.3c0,0.2-0.1,0.4-0.3,0.6
		c-0.2,0.2-0.5,0.2-0.7,0.2c-0.2-0.1-0.5-0.3-0.7-0.6c-0.1-0.2-0.2-0.4-0.3-0.8c0-0.4,0-0.6,0.1-0.6c0,0,0,0,0.1,0
		c0,0,0.1,0.2,0.1,0.4c0.1,0.3,0.1,0.5,0.2,0.6c0,0.1,0.1,0.1,0.1,0.2c0.1,0.1,0.3,0.2,0.4,0.3c0.2,0.1,0.3,0,0.4-0.1
		c0.1-0.1,0.1-0.2,0.1-0.4c0-0.2-0.1-0.4-0.2-0.5c0,0-0.1-0.1-0.1-0.1c-0.1-0.1-0.2-0.1-0.3-0.2c0,0-0.1-0.1-0.1-0.1
		c-0.2-0.2-0.2-0.3,0-0.5c0.2-0.1,0.3-0.1,0.5,0.1c0,0,0,0,0.1,0.1c0,0,0,0,0,0s0,0.1,0.1,0.2c0.1,0.1,0.1,0.2,0.2,0.3
		c0.1,0.2,0.3,0.2,0.4,0.3c0.1,0,0.4-0.1,0.6-0.2L51,13.8l0.3-0.3l2,2.3L53,16.1L52.6,15.8z"/>
	<path class="st6" d="M55.2,19.7l-1.1,0.7l-0.8-1.4c-0.1,0-0.1,0.1-0.1,0.1c-0.1,0.1-0.2,0.2-0.3,0.3c-0.1,0.3-0.1,0.5,0,0.8
		c0,0.1,0.2,0.2,0.3,0.4c0.2,0.1,0.3,0.2,0.3,0.2c0,0,0,0,0,0.1c-0.1,0-0.2,0-0.4,0c-0.2-0.1-0.4-0.2-0.5-0.5
		c-0.3-0.4-0.3-0.9,0-1.3c0.1-0.2,0.3-0.3,0.5-0.5l-0.1-0.2c0-0.1,0-0.1,0.1-0.2c0.2-0.1,0.3-0.1,0.5-0.1c0.2,0,0.3,0.1,0.4,0.3
		c0.1,0.1,0,0.2,0,0.2l-0.2,0.1l0.6,1.1l0.8-0.4l-1.1-1.8l0.3-0.2l1.5,2.6l-0.3,0.2L55.2,19.7z"/>
	<path class="st6" d="M55.6,20.5l-1.3,0.6l-0.2-0.4l1.3-0.6l-0.2-0.3l0.4-0.2l0.6,1.1l-0.4,0.2L55.6,20.5z"/>
	<path class="st6" d="M57.3,24.9l-0.2-0.5l-0.5,0.1c-0.1,0-0.3,0-0.6-0.1c-0.1,0.2-0.3,0.4-0.5,0.5c-0.3,0.1-0.5,0.1-0.8-0.1
		c-0.2-0.2-0.4-0.4-0.5-0.7c-0.1-0.2-0.1-0.4,0-0.7c0.1-0.3,0.1-0.4,0.2-0.5c0,0,0,0,0,0c0,0,0,0.2,0.1,0.4c0,0.3,0.1,0.5,0.1,0.5
		c0.1,0.2,0.2,0.4,0.4,0.5c0.2,0.1,0.3,0.1,0.5,0.1c0.1,0,0.2-0.1,0.3-0.3c-0.3-0.1-0.5-0.3-0.6-0.6c-0.1-0.3-0.1-0.5,0-0.7
		c0.1-0.2,0.2-0.3,0.3-0.3c0.2-0.1,0.3,0,0.5,0.1c0.2,0.1,0.3,0.3,0.4,0.5c0.1,0.3,0.1,0.6-0.1,0.8c0.1,0,0.2,0.1,0.4,0.1
		c0.1,0,0.2,0,0.3,0l-0.7-1.9l0.4-0.1l1,2.8L57.3,24.9z M55.9,23.2c-0.1-0.3-0.2-0.4-0.4-0.3c0,0,0,0-0.1,0
		c-0.1,0.1-0.1,0.2-0.1,0.4c0,0.1,0.1,0.2,0.2,0.3c0,0,0.1,0.1,0.3,0.2C56,23.6,56,23.4,55.9,23.2z"/>
	<path class="st6" d="M57.9,27.2L57.2,27c-0.1,0.5-0.3,0.8-0.7,0.9c-0.4,0.1-0.7,0-1-0.2c-0.1-0.1-0.2-0.3-0.3-0.5l0.4-0.1
		c0.1,0.1,0.1,0.2,0.2,0.3c0.2,0.1,0.4,0.1,0.6,0.1c0.2-0.1,0.4-0.3,0.4-0.6L56,26.6l0,0l0.6-0.6c-0.2-0.3-0.4-0.4-0.6-0.4
		c-0.3,0.1-0.4,0.2-0.5,0.3c0,0.1-0.1,0.2-0.1,0.3L55,26.4c0-0.2,0-0.4,0.1-0.6c0.1-0.3,0.4-0.5,0.8-0.6c0.4-0.1,0.7,0.1,1,0.5
		l0.5-0.5l-0.1-0.6l0.4-0.1l0.7,3.1L58,27.8L57.9,27.2z M57.7,26.7l-0.2-1l-0.8,0.7l0,0L57.7,26.7z"/>
	<path class="st6" d="M58,28.2l-1.4,0.2l-0.1-0.4l1.4-0.2l-0.1-0.3l0.4-0.1l0.2,1.2l-0.4,0.1L58,28.2z"/>
</g>
<g>
	<path class="st6" d="M7.7,36l-2,0.2l0-0.4l1.3-1.1l-1.4,0.2l0-0.4l2-0.2l0,0.4l-1.3,1.1l1.4-0.2L7.7,36z"/>
	<path class="st6" d="M6.3,37.7l-0.2-0.8l-0.4-0.1l-0.1-0.4l2.1,0.3l0.1,0.5L6,38.3L6,37.9L6.3,37.7z M7.4,37l-0.9-0.1l0.1,0.6
		L7.4,37z"/>
	<path class="st6" d="M8.5,39.6l-2,0.5l-0.1-0.4l1.1-1.3l-1.3,0.4l-0.1-0.4l2-0.5l0.1,0.4l-1.1,1.3l1.3-0.4L8.5,39.6z"/>
	<path class="st6" d="M7.4,41.5l-0.3-0.8l-0.4,0l-0.1-0.4l2.2,0l0.2,0.4l-1.7,1.4l-0.1-0.4L7.4,41.5z M8.4,40.7l-0.9,0l0.2,0.5
		L8.4,40.7z"/>
	<path class="st6" d="M8.3,42.3l-0.8,0.4l-0.2-0.4l1.8-0.8l0.2,0.4l-0.8,0.4l1.1,0.3l0.2,0.4l-1.3-0.3L8,43.8l-0.2-0.5L8.3,42.3z"/>
	<path class="st6" d="M11,44.9l-1.8,1L9,45.6l0.8-1.5l-1.2,0.7l-0.2-0.4l1.8-1l0.2,0.4l-0.8,1.5l1.2-0.7L11,44.9z"/>
	<path class="st6" d="M10.4,47l-0.4-0.7l-0.4,0.1l-0.2-0.4l2.1-0.5l0.3,0.4l-1.3,1.7l-0.2-0.4L10.4,47z M11.1,46l-0.9,0.2l0.3,0.5
		L11.1,46z"/>
	<path class="st6" d="M11.5,48.6L11,47.9l-0.4,0.1l-0.3-0.3l2.1-0.7l0.3,0.4l-1.2,1.8l-0.3-0.3L11.5,48.6z M12.2,47.5l-0.9,0.3
		l0.4,0.5L12.2,47.5z"/>
	<path class="st6" d="M13.2,48l0.3,0.3l-0.7,1.5l1.5-0.6l0.3,0.3L13.2,51l-0.3-0.3l1-0.9l-1.3,0.5l-0.2-0.2l0.6-1.3l-1,0.9l-0.3-0.3
		L13.2,48z"/>
	<path class="st6" d="M15.9,50.7c0.3,0.3,0.5,0.7,0.3,1.1l-0.3-0.3c0.1-0.2,0-0.4-0.2-0.5c-0.3-0.2-0.6-0.2-0.9,0.1
		c-0.3,0.3-0.3,0.7,0,0.9c0.2,0.1,0.4,0.2,0.6,0.1l0.3,0.3c-0.4,0.2-0.8,0.2-1.1-0.1c-0.4-0.4-0.5-1-0.1-1.4
		C14.8,50.3,15.4,50.3,15.9,50.7z"/>
	<path class="st6" d="M17,53.1l-0.7-0.5l-0.5,0.7L15.4,53l1.2-1.6l0.3,0.2l-0.5,0.7l0.7,0.5l0.5-0.7l0.3,0.2L16.8,54l-0.3-0.2
		L17,53.1z"/>
	<path class="st6" d="M18.3,54.5l-0.7-0.4l-0.3,0.3l-0.4-0.2l1.7-1.3l0.4,0.3l-0.5,2.1l-0.4-0.2L18.3,54.5z M18.6,53.3l-0.7,0.6
		l0.5,0.3L18.6,53.3z"/>
	<path class="st6" d="M20.3,53.8c0.4,0.2,0.5,0.6,0.3,0.9c-0.1,0.2-0.4,0.4-0.7,0.3l0,1l-0.4-0.2l0-0.9l-0.2-0.1l-0.4,0.7l-0.4-0.2
		l1-1.8L20.3,53.8z M20.2,54.1L19.9,54l-0.3,0.5l0.3,0.2c0.2,0.1,0.3,0.1,0.4-0.1C20.4,54.4,20.3,54.2,20.2,54.1z"/>
	<path class="st6" d="M22.3,55.9c-0.3,0.6-0.8,0.7-1.4,0.5l-0.6-0.3l0.8-1.8l0.6,0.3C22.3,54.8,22.5,55.3,22.3,55.9z M21,56
		c0.4,0.2,0.7,0.1,0.9-0.3c0.2-0.4,0.1-0.7-0.3-0.9l-0.3-0.1l-0.6,1.2L21,56z"/>
	<path class="st6" d="M22.8,55l0.4,0.1L22.4,57L22,56.9L22.8,55z"/>
	<path class="st6" d="M23.8,56.6l-0.3,0.9l-0.4-0.1l0.6-1.9l0.4,0.1l-0.3,0.9l1-0.6l0.5,0.1l-1.1,0.7l0.5,1.2l-0.5-0.2L23.8,56.6z"
		/>
	<path class="st6" d="M26.2,57.8l-0.8-0.2l-0.2,0.3l-0.4-0.1L26,56l0.5,0.1l0.2,2.1l-0.4-0.1L26.2,57.8z M26.1,56.5l-0.5,0.8
		l0.6,0.1L26.1,56.5z"/>
	<path class="st6" d="M27.6,56.4L27.3,58l0.7,0.1l-0.1,0.3l-1-0.2l0.4-2L27.6,56.4z"/>
	<path class="st6" d="M29.3,58.3l-0.8-0.1l-0.2,0.4l-0.4-0.1l1-1.9l0.5,0.1l0.5,2.1l-0.4-0.1L29.3,58.3z M29,57.1l-0.4,0.8l0.6,0.1
		L29,57.1z"/>
	<path class="st6" d="M30.5,56.7l1.5,0l0,0.3l-0.5,0l-0.1,1.7l-0.4,0l0.1-1.7l-0.5,0L30.5,56.7z"/>
	<path class="st6" d="M33.2,57.1l-0.8,0l0,0.5l0.7,0l0,0.3l-0.7,0l0,0.5l0.8,0l0,0.3l-1.2,0l0-2l1.2,0L33.2,57.1z"/>
	<path class="st6" d="M34.1,56.7c0.5,0,0.7,0.2,0.8,0.6c0,0.2-0.1,0.5-0.4,0.6l0.5,0.8l-0.5,0L34,57.9l-0.2,0l0.1,0.8l-0.4,0l-0.2-2
		L34.1,56.7z M34.1,57l-0.3,0l0.1,0.6l0.3,0c0.2,0,0.3-0.1,0.3-0.3C34.5,57.1,34.3,57,34.1,57z"/>
	<path class="st6" d="M36.2,56.8l-0.8,0.1l0.1,0.5l0.7-0.1l0,0.3l-0.7,0.1l0.1,0.5l0.8-0.1l0,0.3l-1.2,0.2l-0.3-2l1.2-0.2L36.2,56.8
		z"/>
	<path class="st6" d="M38.1,58.1l-0.8,0.2l-0.5-2l0.8-0.2c0.4-0.1,0.7,0.1,0.8,0.4c0.1,0.2-0.1,0.4-0.2,0.5c0.2,0,0.4,0.2,0.5,0.4
		C38.6,57.7,38.5,58,38.1,58.1z M37.6,56.5l-0.4,0.1l0.1,0.5l0.4-0.1c0.2,0,0.3-0.2,0.2-0.3C37.9,56.5,37.8,56.4,37.6,56.5z
		 M37.8,57.3l-0.4,0.1l0.1,0.5l0.4-0.1c0.2,0,0.3-0.2,0.2-0.3C38.1,57.3,38,57.2,37.8,57.3z"/>
	<path class="st6" d="M39.9,56.7l-0.8,0.3l0.3,0.8l-0.4,0.1L38.3,56l0.4-0.1l0.2,0.8l0.8-0.3l-0.2-0.8l0.4-0.1l0.6,1.9l-0.4,0.1
		L39.9,56.7z"/>
	<path class="st6" d="M41.8,56.5l-0.7,0.3l0,0.4l-0.4,0.2l-0.1-2.2l0.4-0.2l1.4,1.6l-0.4,0.2L41.8,56.5z M41,55.5l0,0.9l0.5-0.2
		L41,55.5z"/>
	<path class="st6" d="M43.3,54l0.9,1.8L43.9,56l-1.4-0.9l0.6,1.3l-0.4,0.2l-0.9-1.8l0.4-0.2l1.4,0.9L43,54.2L43.3,54z"/>
	<path class="st6" d="M44.7,53.6L44,54l0.3,0.4l0.6-0.3l0.2,0.3l-0.6,0.3l0.3,0.5l0.7-0.4l0.2,0.3l-1,0.6l-1-1.8l1-0.6L44.7,53.6z"
		/>
	<path class="st6" d="M46.8,54.3c-0.3,0.2-0.7,0.2-1-0.1l0.4-0.2c0.1,0.1,0.2,0.2,0.4,0.1c0.2-0.1,0.2-0.3,0.1-0.4
		c-0.2-0.4-1,0.4-1.4-0.2c-0.2-0.3-0.1-0.6,0.3-0.9c0.3-0.2,0.7-0.2,0.9,0.1l-0.4,0.2c-0.1-0.1-0.2-0.1-0.4,0
		c-0.1,0.1-0.2,0.2-0.1,0.4c0.2,0.3,1-0.4,1.4,0.2C47.2,53.6,47.1,54,46.8,54.3z"/>
	<path class="st6" d="M48.3,52.7l-0.6,0.5l0.1,0.4l-0.3,0.3l-0.7-2l0.4-0.3l1.8,1.1l-0.3,0.3L48.3,52.7z M47.2,52l0.3,0.8l0.5-0.4
		L47.2,52z"/>
	<path class="st6" d="M48.3,50.5c0.4-0.3,0.7-0.3,1,0c0.2,0.2,0.2,0.5,0.1,0.7l0.9,0.3l-0.3,0.3L49,51.5l-0.1,0.1l0.5,0.6l-0.3,0.3
		L47.7,51L48.3,50.5z M48.5,50.7L48.3,51l0.4,0.4l0.2-0.2c0.2-0.2,0.2-0.3,0-0.4C48.8,50.6,48.7,50.6,48.5,50.7z"/>
	<path class="st6" d="M51,50.7l-0.6,0.6l-1.5-1.4l0.6-0.6c0.3-0.3,0.6-0.3,0.8-0.1c0.2,0.2,0.2,0.4,0.1,0.6c0.2-0.1,0.5-0.1,0.6,0.1
		C51.3,50,51.3,50.4,51,50.7z M49.7,49.6l-0.3,0.3l0.4,0.4l0.3-0.3c0.1-0.1,0.1-0.3,0-0.4C50,49.4,49.8,49.4,49.7,49.6z M50.3,50.1
		L50,50.4l0.4,0.4l0.3-0.3c0.1-0.1,0.1-0.3,0-0.4C50.6,50,50.4,50,50.3,50.1z"/>
	<path class="st6" d="M52.1,48.8l-0.5,0.6l0.2,0.3l-0.3,0.3l-1.1-1.9l0.3-0.4l2,0.7L52.5,49L52.1,48.8z M50.9,48.4l0.5,0.8l0.4-0.4
		L50.9,48.4z"/>
	<path class="st6" d="M51.2,47.4l0.9-1.2l0.3,0.2L52,46.8l1.4,1l-0.2,0.3l-1.4-1l-0.3,0.4L51.2,47.4z"/>
	<path class="st6" d="M54.1,44.7c0.5,0.3,0.7,0.9,0.3,1.4l-0.4,0.6l-1.7-1l0.4-0.6C53,44.6,53.6,44.4,54.1,44.7z M54.1,46
		c0.2-0.4,0.1-0.7-0.2-0.9c-0.4-0.2-0.7-0.1-0.9,0.2l-0.1,0.2l1.1,0.7L54.1,46z"/>
	<path class="st6" d="M55.3,43.8l-0.4,0.7l0.3,0.3L55,45.2l-1.5-1.6l0.2-0.4l2.1,0.3l-0.2,0.4L55.3,43.8z M54.1,43.6l0.6,0.6
		l0.3-0.5L54.1,43.6z"/>
	<path class="st6" d="M56.5,42l-0.3,0.8l-1.9-0.7l0.3-0.8c0.2-0.4,0.4-0.5,0.7-0.4c0.2,0.1,0.3,0.3,0.3,0.5c0.1-0.2,0.4-0.3,0.6-0.2
		C56.5,41.3,56.6,41.6,56.5,42z M54.9,41.5l-0.1,0.3l0.5,0.2l0.1-0.3c0.1-0.2,0-0.3-0.1-0.4C55.1,41.2,54.9,41.3,54.9,41.5z
		 M55.6,41.7l-0.1,0.4l0.5,0.2l0.1-0.4c0.1-0.2,0-0.3-0.1-0.4C55.9,41.5,55.7,41.5,55.6,41.7z"/>
	<path class="st6" d="M56.4,39.7l-0.3,0.8l0.8,0.3l-0.1,0.4l-1.9-0.6l0.1-0.4l0.8,0.2l0.3-0.8l-0.8-0.2l0.1-0.4l1.9,0.6l-0.1,0.4
		L56.4,39.7z"/>
	<path class="st6" d="M57.3,38l-0.2,0.8l0.3,0.2l-0.1,0.4l-1.8-1.2l0.1-0.5l2.1-0.3l-0.1,0.4L57.3,38z M56,38.1l0.8,0.5l0.1-0.6
		L56,38.1z"/>
	<path class="st6" d="M55.9,36.6l1.7,0.3l0.1-0.7l0.3,0.1l-0.2,1.1l-2-0.3L55.9,36.6z"/>
	<path class="st6" d="M57.7,34.9l-0.1,0.8l0.4,0.2l0,0.4L56,35.3l0-0.5l2.1-0.5l0,0.4L57.7,34.9z M56.5,35.1l0.8,0.4l0.1-0.6
		L56.5,35.1z"/>
</g>
<g>
	<path class="st6" d="M18.2,19.7c0.3-0.3,0.6-0.3,0.8-0.1c0.1,0.1,0.2,0.3,0.1,0.6l0.7,0.2l-0.3,0.3l-0.7-0.2l-0.1,0.1l0.5,0.4
		L19,21.3l-1.2-1.1L18.2,19.7z M18.4,19.9l-0.2,0.2l0.3,0.3l0.2-0.2c0.1-0.1,0.1-0.3,0-0.4C18.6,19.8,18.5,19.8,18.4,19.9z"/>
	<path class="st6" d="M20.4,19.4l-0.5,0.4l0.1,0.3l-0.2,0.2l-0.7-1.6l0.3-0.2l1.5,0.8l-0.2,0.2L20.4,19.4z M19.5,18.9l0.3,0.7
		l0.3-0.3L19.5,18.9z"/>
	<path class="st6" d="M20,18l0.3-0.2l1.1,0.7l-0.3-1.3l0.3-0.2l1,1.3l-0.3,0.2l-0.6-0.8l0.3,1.1l-0.2,0.1l-1-0.6l0.6,0.8L21,19.3
		L20,18z"/>
	<path class="st6" d="M23.2,16.4l-0.3,0.2c-0.1-0.1-0.3-0.1-0.4,0c-0.2,0.1-0.3,0.4-0.1,0.7c0.2,0.3,0.4,0.4,0.7,0.2
		c0.2-0.1,0.3-0.3,0.2-0.6l-0.5,0.3L22.6,17l0.7-0.4l0.1,0.2c0.1,0.3,0,0.7-0.3,0.9c-0.4,0.2-0.9,0.1-1.1-0.3
		c-0.2-0.4-0.1-0.9,0.3-1.1C22.6,16.2,23,16.2,23.2,16.4z"/>
	<path class="st6" d="M24.6,16.2l-0.6,0.3l0.3,0.6L24,17.3l-0.7-1.5l0.3-0.1l0.3,0.6l0.6-0.3l-0.3-0.6l0.3-0.1l0.7,1.5l-0.3,0.1
		L24.6,16.2z"/>
	<path class="st6" d="M26.1,16l-0.6,0.2l0,0.3l-0.3,0.1l0-1.7l0.3-0.1l1.1,1.3l-0.3,0.1L26.1,16z M25.5,15.2l0,0.7l0.4-0.2
		L25.5,15.2z"/>
	<path class="st6" d="M26.9,14.4c0.4-0.1,0.6,0.1,0.7,0.3c0.1,0.2,0,0.4-0.2,0.6l0.5,0.5l-0.4,0.1L27,15.4l-0.1,0L27,16l-0.3,0.1
		l-0.5-1.6L26.9,14.4z M26.9,14.7l-0.3,0.1l0.1,0.5l0.3-0.1c0.2,0,0.2-0.2,0.2-0.3C27.2,14.7,27.1,14.6,26.9,14.7z"/>
	<path class="st6" d="M27.6,14.2l0.3-0.1l0.4,1.6L28,15.8L27.6,14.2z"/>
	<path class="st6" d="M29.4,15.2l-0.6,0.1l0,0.3l-0.3,0.1l0.3-1.7l0.4-0.1l0.8,1.5l-0.3,0.1L29.4,15.2z M28.9,14.3L28.8,15l0.5-0.1
		L28.9,14.3z"/>
	<path class="st6" d="M30.9,15.3c-0.3,0-0.6-0.1-0.6-0.4l0.3,0c0,0.1,0.1,0.2,0.3,0.2c0.1,0,0.2-0.1,0.2-0.2c0-0.4-0.8-0.1-0.9-0.7
		c0-0.3,0.2-0.5,0.5-0.5c0.3,0,0.6,0.1,0.6,0.4l-0.3,0c0-0.1-0.1-0.2-0.2-0.2c-0.1,0-0.2,0.1-0.2,0.2c0,0.3,0.8,0.1,0.9,0.7
		C31.4,15.1,31.2,15.3,30.9,15.3z"/>
	<path class="st6" d="M31.5,13.7l0.3,0l0,1.6l-0.3,0L31.5,13.7z"/>
	<path class="st6" d="M32.4,14.6l0,0.7l-0.3,0l0-1.6l0.3,0l0,0.7l0.6-0.7l0.4,0l-0.7,0.8l0.7,0.8l-0.4,0L32.4,14.6z"/>
	<path class="st6" d="M34.5,14.7l-0.7-0.1l-0.1,0.7l-0.3,0l0.2-1.6l0.3,0l-0.1,0.7l0.7,0.1l0.1-0.7l0.3,0l-0.2,1.6l-0.3,0L34.5,14.7
		z"/>
	<path class="st6" d="M36.9,14.7l-0.4-0.1c0-0.1-0.2-0.2-0.3-0.3c-0.3-0.1-0.5,0.1-0.6,0.4c-0.1,0.3,0.1,0.6,0.4,0.6
		c0.2,0.1,0.4-0.1,0.5-0.3L36,15l0.1-0.2l0.8,0.2l-0.1,0.3c-0.1,0.3-0.5,0.5-0.9,0.5c-0.5-0.1-0.7-0.5-0.6-1c0.1-0.5,0.5-0.7,1-0.6
		C36.7,14.2,36.9,14.4,36.9,14.7z"/>
	<path class="st6" d="M37.3,14.3l0.3,0.1l-0.3,1c-0.1,0.2,0,0.4,0.2,0.4c0.2,0.1,0.3,0,0.4-0.2l0.3-1l0.3,0.1l-0.3,1
		c-0.1,0.4-0.5,0.5-0.8,0.4c-0.3-0.1-0.5-0.4-0.4-0.8L37.3,14.3z"/>
	<path class="st6" d="M39.4,15c0.4,0.1,0.4,0.4,0.3,0.7c-0.1,0.2-0.2,0.3-0.5,0.3l0.1,0.8L39,16.6l-0.1-0.7l-0.1-0.1l-0.2,0.6
		l-0.3-0.1l0.6-1.5L39.4,15z M39.3,15.3L39,15.2l-0.2,0.4l0.2,0.1c0.2,0.1,0.3,0,0.3-0.1C39.5,15.5,39.4,15.4,39.3,15.3z"/>
	<path class="st6" d="M41.1,16.7c-0.2,0.4-0.7,0.6-1.1,0.4l-0.5-0.2l0.7-1.5l0.5,0.2C41.1,15.8,41.3,16.3,41.1,16.7z M40.1,16.8
		c0.3,0.1,0.6,0.1,0.7-0.2c0.1-0.3,0.1-0.6-0.2-0.7l-0.2-0.1l-0.5,1L40.1,16.8z"/>
	<path class="st6" d="M41.6,16.1l0.3,0.2l-0.4,1.2l0.9-0.9l0.3,0.2L42.3,18l0.9-0.9l0.3,0.2l-1.2,1.1L42,18.2l0.4-1.1l-0.9,0.8
		l-0.3-0.2L41.6,16.1z"/>
	<path class="st6" d="M43.7,19.1l-0.5-0.4l-0.3,0.2l-0.3-0.2l1.4-0.9l0.3,0.2l-0.5,1.6l-0.3-0.2L43.7,19.1z M44,18.1l-0.6,0.4
		l0.4,0.3L44,18.1z"/>
	<path class="st6" d="M45.4,18.8c0.3,0.3,0.3,0.6,0.1,0.8c-0.1,0.1-0.3,0.2-0.6,0.1l-0.2,0.7l-0.3-0.2l0.2-0.7l-0.1-0.1l-0.4,0.5
		l-0.2-0.2l1.1-1.2L45.4,18.8z M45.2,19L45,18.8l-0.3,0.4l0.2,0.2c0.1,0.1,0.3,0.1,0.4,0C45.4,19.3,45.4,19.1,45.2,19z"/>
	<path class="st6" d="M45.8,21l-0.4-0.5L45,20.7l-0.2-0.2l1.6-0.7l0.3,0.3l-0.8,1.5l-0.2-0.2L45.8,21z M46.2,20.1l-0.7,0.3l0.3,0.3
		L46.2,20.1z"/>
</g>
<g>
	<path class="st6" d="M32.1,18.2c0.3,0.4,0.7,0.9,1.2,1.6c0.6,0.6,1.2,1,1.7,1.4c0,0.1-0.1,0.3-0.3,0.8c1.2,0.5,2.2,1.3,3,2.4
		c0.8,1.1,1.2,2.4,1.2,3.8c0,1.4-0.4,2.6-1.2,3.7c-0.8,1.1-1.8,1.9-3,2.4c0.2,0.4,0.3,0.8,0.5,1.1c-0.2,0.1-0.6,0.3-1.1,0.5
		c-0.3,0.2-0.7,0.5-1.2,0.9v1.7c1.3-0.7,2.5-1.6,3.6-2.5c1.6-1.4,2.7-2.8,3.2-4.3c0.5-1.3,0.7-2.5,0.7-3.5c0-0.8-0.2-1.6-0.5-2.2
		c-0.2-0.4-0.6-0.9-1.1-1.5c-0.5-0.6-0.9-1-1-1.2c1.2,0.4,2.3,1.1,3.2,2.3c0.9,1.2,1.4,2.7,1.4,4.4c0,0.6-0.1,1.3-0.2,1.9
		c-0.4,1.7-0.9,3.1-1.7,4.4c-0.6,0.8-1.2,1.7-1.8,2.5c-0.6,0.8-0.9,1.7-0.9,2.5l-2.6-2.4c-0.2,0.1-0.4,0.1-0.6,0.2
		c-0.4,0.2-0.8,0.4-1.1,0.7c1.9,0.7,2.9,1.7,2.9,2.8c0,0.6-0.3,0.9-0.8,0.9c-0.2,0-0.3-0.1-0.5-0.2c-0.3-0.2-0.5-0.5-0.5-0.8
		c0-0.1,0.1-0.4,0.2-0.8c-0.7-0.5-1.3-0.8-1.9-0.8v2c0.4,0.3,0.6,0.7,0.6,1c0,0.4-0.1,0.7-0.4,0.9c-0.3,0.3-0.6,0.4-0.9,0.4
		c-0.4,0-0.7-0.1-0.9-0.4c-0.3-0.3-0.4-0.6-0.4-0.9c0-0.3,0.2-0.6,0.6-1v-2c-0.6,0-1.2,0.3-1.9,0.8c0.1,0.5,0.2,0.8,0.2,0.8
		c0,0.3-0.2,0.6-0.5,0.8c-0.2,0.1-0.3,0.2-0.5,0.2c-0.5,0-0.8-0.3-0.8-0.9c0-1.1,1-2,2.9-2.8c-0.5-0.4-1-0.7-1.7-0.8l-2.6,2.4
		c0-0.8-0.3-1.6-0.9-2.5c-0.6-0.8-1.2-1.7-1.8-2.5c-0.8-1.3-1.3-2.7-1.7-4.4c-0.1-0.7-0.2-1.3-0.2-1.9c0-1.6,0.5-3.1,1.4-4.3
		c0.8-1.1,1.9-1.9,3.2-2.3c-0.5,0.6-1.1,1.3-1.6,1.9c-0.7,0.9-1,1.8-1,3c0,1,0.2,2.2,0.7,3.5c0.5,1.5,1.6,2.9,3.2,4.3
		c1.1,1,2.3,1.8,3.6,2.5v-1.7c-0.2-0.2-0.6-0.5-1.2-0.9c-0.2-0.1-0.6-0.3-1.1-0.5c0.1-0.1,0.2-0.5,0.5-1.2c-1.2-0.5-2.2-1.3-2.9-2.4
		c-0.8-1.1-1.2-2.4-1.2-3.7c0-1.3,0.4-2.6,1.1-3.7c0.7-1.1,1.7-1.9,2.9-2.5c-0.1-0.3-0.2-0.6-0.3-0.8c0.3-0.2,0.8-0.6,1.7-1.4
		c0.2-0.2,0.4-0.4,0.7-0.8C31.8,18.5,32,18.2,32.1,18.2z M30.8,28.6c0-1.5-0.4-3.3-1-5.4c-0.9,0.4-1.7,1.1-2.3,2
		c-0.6,0.9-0.9,1.8-0.9,2.9c0,1.1,0.3,2.1,0.9,3c0.6,0.9,1.3,1.5,2.3,1.9C30.6,31.3,30.9,29.9,30.8,28.6z M33.3,28.6
		c0,0.5,0.1,1.4,0.4,2.6c0.2,0.8,0.3,1.4,0.4,1.7c0,0.1,0.3-0.1,0.9-0.6c0.6-0.5,1.2-1.1,1.6-1.8c0.6-0.9,0.9-1.7,0.9-2.6
		c0-1.1-0.3-2.1-0.9-2.9c-0.6-0.9-1.4-1.5-2.3-2C33.6,25.4,33.3,27.2,33.3,28.6z"/>
</g>
<g>
	<path class="st6" d="M26.8,49.6c-0.4-0.1-0.7-0.5-0.6-0.9l0.5,0.1c0,0.2,0,0.3,0.2,0.4c0.2,0.1,0.4,0,0.4-0.2
		c0.1-0.5-1.1-0.5-0.8-1.3c0.1-0.4,0.5-0.5,0.9-0.4c0.4,0.1,0.7,0.4,0.6,0.8l-0.5-0.1c0-0.1-0.1-0.3-0.2-0.3c-0.2-0.1-0.3,0-0.4,0.2
		c-0.1,0.4,1.1,0.5,0.8,1.3C27.7,49.5,27.3,49.8,26.8,49.6z"/>
	<path class="st6" d="M28.7,47.8l-0.3,1.9l0.7,0.1L29,50.1l-1.2-0.2l0.4-2.2L28.7,47.8z"/>
	<path class="st6" d="M30.2,50.3c-0.6-0.1-1.1-0.6-1-1.2c0.1-0.7,0.6-1.1,1.2-1c0.6,0.1,1.1,0.6,1,1.2
		C31.4,49.9,30.9,50.3,30.2,50.3z M30.3,49.9c0.4,0,0.7-0.2,0.7-0.7c0-0.5-0.2-0.8-0.6-0.8c-0.4,0-0.7,0.2-0.7,0.7
		C29.6,49.5,29.9,49.8,30.3,49.9z"/>
	<path class="st6" d="M31.6,48.1l0.4,0l0,1.4c0,0.3,0.2,0.5,0.5,0.5c0.3,0,0.5-0.2,0.4-0.5l0-1.4l0.5,0l0,1.4c0,0.6-0.4,0.9-0.9,0.9
		c-0.5,0-0.9-0.3-0.9-0.9L31.6,48.1z"/>
	<path class="st6" d="M35.6,48.4l-0.5,0.1c-0.1-0.2-0.3-0.2-0.6-0.2c-0.4,0.1-0.6,0.4-0.6,0.8c0.1,0.5,0.4,0.7,0.8,0.6
		c0.3-0.1,0.5-0.3,0.6-0.6l-0.8,0.1l-0.1-0.3l1.2-0.2l0.1,0.4c0,0.5-0.4,0.9-1,1c-0.6,0.1-1.2-0.3-1.3-1c-0.1-0.7,0.3-1.2,1-1.3
		C35,47.8,35.4,48,35.6,48.4z"/>
	<path class="st6" d="M37.3,48.5l-0.9,0.3l0.3,0.9l-0.4,0.1l-0.6-2.2l0.4-0.1l0.3,0.9l0.9-0.3l-0.3-0.9l0.4-0.1l0.6,2.2l-0.4,0.1
		L37.3,48.5z"/>
</g>
<path class="st6" d="M3.9,31.2C4.1,31,4.4,31,4.6,31c0.4-0.1,0.9-0.1,1.3-0.2c0.2,0,0.4,0,0.5,0c0.1,0,0.2,0,0.3-0.1
	c0,0,0.1,0,0.1,0c0.6,0,1.2,0,1.7,0c0.1,0,0.2,0,0.4,0.1c0,0,0,0,0,0c0,0-0.1,0-0.1,0c-0.3,0-0.6,0-0.9,0c-0.1,0-0.1,0-0.2,0
	c-0.1,0.1,0,0.3,0,0.4c0,0.1,0,0.1,0,0.2c0,0.1,0,0.2,0,0.3c0.2,0,0.5,0,0.7,0c0.2,0,0.4-0.1,0.6,0c0,0,0,0,0,0.1
	c-0.1,0-0.2,0-0.3,0c-0.6,0-1.2,0.1-1.8,0.1c0,0,0,0-0.1,0c-0.1-0.1-0.3-0.1-0.4-0.1c-0.7,0-1.5-0.1-2.2-0.4
	C4.1,31.3,4,31.3,3.9,31.2z M7,31.7c0.4,0,0.4,0,0.3-0.4c0,0,0,0,0-0.1c0-0.1,0-0.1,0-0.2c0.1-0.1,0-0.2,0-0.3c-0.1,0-0.2,0-0.3,0
	C7.1,31.1,7.1,31.4,7,31.7z M6.9,31.3C6.9,31.2,6.8,31.2,6.9,31.3c-0.8-0.1-1.6-0.1-2.5-0.1C5.2,31.2,6,31.2,6.9,31.3z"/>
<path class="st6" d="M59.8,31.4c-0.7,0.2-1.4,0.3-2.2,0.4c-0.1,0-0.3,0-0.4,0.1c0,0,0,0-0.1,0c-0.6,0-1.2,0-1.8-0.1
	c-0.1,0-0.2,0-0.3,0c0,0,0,0,0-0.1c0.2,0,0.4,0,0.6,0c0.2,0,0.4,0,0.7,0c0-0.1,0-0.2,0-0.3c0-0.1,0-0.1,0-0.2c0-0.1,0.1-0.3,0-0.4
	c-0.1,0-0.1,0-0.2,0c-0.3,0-0.6,0-0.9,0c0,0-0.1,0-0.1,0c0,0,0,0,0,0c0.1,0,0.2,0,0.4-0.1c0.6,0,1.2,0,1.7,0c0,0,0.1,0,0.1,0
	c0.1,0,0.2,0,0.3,0.1c0.2,0,0.4,0,0.5,0c0.4,0.1,0.9,0.1,1.3,0.2c0.2,0,0.5,0.1,0.7,0.2C60,31.3,59.9,31.4,59.8,31.4z M57.1,30.8
	c-0.1,0-0.2,0-0.3,0c-0.1,0.1-0.1,0.2,0,0.3c0,0.1,0,0.1,0,0.2c0,0,0,0,0,0.1c-0.1,0.3-0.1,0.4,0.3,0.4C56.9,31.4,57,31.1,57.1,30.8
	z M59.7,31.2c-0.8,0-1.6,0-2.5,0c0,0,0,0,0,0.1C58,31.3,58.9,31.2,59.7,31.2z"/>
</svg>
